<svg width="85" height="93" viewBox="0 0 85 93" fill="none" xmlns="http://www.w3.org/2000/svg">
<path d="M38.389 0.992179C40.695 -0.327744 43.6985 -0.333706 46.0025 0.992179C57.5936 7.54178 69.1884 14.0811 80.7776 20.6347C82.9573 21.8625 84.4154 24.2884 84.3932 26.8001V66.205C84.4094 68.8206 82.8073 71.3045 80.5076 72.5045C68.9546 79.018 57.4075 85.5394 45.8564 92.0529C43.5027 93.3987 40.4389 93.295 38.1588 91.839C34.6952 89.8311 31.2256 87.8332 27.7617 85.8273C27.0539 85.4053 26.256 85.0694 25.7562 84.3831C26.198 83.7876 26.988 83.7134 27.6299 83.4534C29.0757 82.9937 30.4036 82.2557 31.7318 81.5396C32.0676 81.3097 32.4777 81.3978 32.7996 81.6035C35.7614 83.3017 38.697 85.0492 41.6688 86.7312C42.3027 87.0972 42.9446 86.6113 43.4865 86.3092C54.8236 79.9017 66.1746 73.5184 77.5097 67.1089C77.9297 66.9068 78.1619 66.461 78.1278 66.0009C78.1357 53.0021 78.1298 40.0009 78.1318 27.0021C78.1798 26.4801 77.8777 26.0002 77.4057 25.7865C65.8927 19.3028 54.3857 12.8092 42.8748 6.32387C42.6753 6.18676 42.4391 6.1132 42.197 6.11284C41.955 6.11249 41.7186 6.18536 41.5187 6.32188C30.0077 12.8092 18.5027 19.3088 6.99173 25.7922C6.5214 26.0061 6.20574 26.4781 6.26172 27.0021C6.26371 40.0009 6.26172 53.0021 6.26172 66.0029C6.24176 66.2274 6.29106 66.4526 6.40299 66.6482C6.51491 66.8438 6.68409 67.0004 6.88773 67.097C9.95949 68.8389 13.0352 70.5685 16.109 72.3044C17.8406 73.2365 19.9667 73.7903 21.8746 73.0762C23.5582 72.4724 24.7383 70.7543 24.7062 68.9667C24.7221 56.0437 24.6982 43.1187 24.7181 30.1977C24.676 29.6241 25.2202 29.1501 25.778 29.2041C27.254 29.1941 28.7319 29.1842 30.2078 29.2081C30.8239 29.1941 31.2478 29.8119 31.1717 30.3899C31.1657 43.3947 31.1876 56.3998 31.1617 69.4046C31.1657 72.8705 29.7418 76.6418 26.5359 78.3377C22.5864 80.3836 17.7048 79.9497 13.803 77.9879C10.4252 76.302 7.20173 74.3123 3.88387 72.5062C1.57823 71.3128 -0.0159448 68.819 0.000285084 66.2053V26.8001C-0.0238942 24.2364 1.49211 21.7665 3.73979 20.5565C15.2909 14.0377 26.8399 7.51396 38.389 0.992179Z" fill="black"/>
<path d="M48.4661 28.2882C53.504 27.964 58.8973 28.0961 63.4308 30.578C66.9407 32.4799 68.8867 36.4714 68.9486 40.3709C68.8506 40.8969 68.3007 41.187 67.7986 41.1509C66.3369 41.1489 64.8749 41.1708 63.4132 41.141C62.7932 41.1648 62.4328 40.5932 62.355 40.045C61.935 38.1792 60.9175 36.3313 59.1613 35.4314C56.4655 34.0816 53.3397 34.1496 50.4001 34.1777C48.2541 34.2916 45.9465 34.4775 44.1284 35.7394C42.7327 36.6953 42.3087 38.625 42.8068 40.1791C43.2765 41.295 44.5646 41.6551 45.6186 41.9869C51.6899 43.5748 58.1236 43.4168 64.079 45.5065C66.5446 46.3584 68.9566 48.0145 69.8005 50.5961C70.9045 54.056 70.4206 58.1917 67.9589 60.9693C65.9626 63.2551 63.0552 64.4992 60.1553 65.1749C56.2976 66.035 52.2941 66.0569 48.3764 65.675C44.6925 65.255 40.8589 64.2872 38.0151 61.7772C35.5832 59.6656 34.3954 56.3756 34.5134 53.2002C34.5415 52.6639 35.0754 52.29 35.5892 52.334C37.0611 52.3221 38.5331 52.3181 40.005 52.336C40.593 52.2939 41.0288 52.802 41.059 53.3562C41.3306 55.1338 41.9987 56.9996 43.5488 58.0536C46.5404 59.9836 50.2941 59.8514 53.7196 59.9054C56.5576 59.7796 59.7433 59.7415 62.0592 57.8658C63.2811 56.7959 63.6431 55.006 63.3129 53.4661C62.9551 52.1661 61.5951 51.5603 60.4272 51.1641C54.4338 49.2682 47.9282 49.9562 41.9927 47.8122C39.5831 46.9606 37.2529 45.3505 36.3271 42.875C35.0354 39.3713 35.6273 35.0376 38.3469 32.3537C40.9987 29.684 44.8266 28.6559 48.4661 28.2879V28.2882Z" fill="black"/>
</svg>
