<svg width="136" height="136" viewBox="0 0 136 136" fill="none" xmlns="http://www.w3.org/2000/svg">
<path d="M67.9999 136C105.555 136 136 105.555 136 67.9999C136 30.4446 105.555 0 67.9999 0C30.4446 0 0 30.4446 0 67.9999C0 105.555 30.4446 136 67.9999 136Z" fill="#EEF0F4"/>
<path d="M70.7338 99.7582H65.2666V116H70.7338V99.7582Z" fill="#3A424B"/>
<path d="M70.7338 20H65.2666V36.2418H70.7338V20Z" fill="#3A424B"/>
<path d="M32.1258 100.008L35.9917 103.874L47.4761 92.3895L43.6103 88.5236L32.1258 100.008Z" fill="#3A424B"/>
<path d="M88.5238 43.6106L92.3896 47.4764L103.874 35.992L100.008 32.1261L88.5238 43.6106Z" fill="#3A424B"/>
<path d="M36.2418 65.2664H20V70.7336H36.2418V65.2664Z" fill="#3A424B"/>
<path d="M116 65.2664H99.7583V70.7336H116V65.2664Z" fill="#3A424B"/>
<path d="M35.9918 32.1262L32.126 35.9921L43.6104 47.4765L47.4763 43.6106L35.9918 32.1262Z" fill="#3A424B"/>
<path d="M92.3893 88.5235L88.5234 92.3894L100.008 103.874L103.874 100.008L92.3893 88.5235Z" fill="#3A424B"/>
<path d="M67.9993 94.0752C82.4002 94.0752 94.0743 82.401 94.0743 68.0002C94.0743 53.5994 82.4002 41.9252 67.9993 41.9252C53.5985 41.9252 41.9243 53.5994 41.9243 68.0002C41.9243 82.401 53.5985 94.0752 67.9993 94.0752Z" fill="#3A424B"/>
<path d="M67.9994 88.0064C79.0485 88.0064 88.0056 79.0493 88.0056 68.0002C88.0056 56.9511 79.0485 47.994 67.9994 47.994C56.9502 47.994 47.9932 56.9511 47.9932 68.0002C47.9932 79.0493 56.9502 88.0064 67.9994 88.0064Z" fill="#3A424B"/>
</svg>
