<svg width="64" height="63" viewBox="0 0 64 63" fill="none" xmlns="http://www.w3.org/2000/svg">
<path d="M16.5889 8.82803C16.5889 4.52231 17.7722 2.17997 24.3056 1.06459C28.7412 0.306036 34.4285 0.211217 39.7336 1.06459C43.9237 1.73938 47.4504 4.78464 47.4504 8.82803V23.0335C47.4504 27.1998 44.0264 30.6127 39.7336 30.6127H24.3056C19.0696 30.6127 14.6566 34.9687 14.6566 39.8932V46.7088H9.35186C4.86473 46.7088 2.2522 43.552 1.15472 39.1347C-0.325662 33.2003 -0.262819 29.6645 1.15472 23.981C2.38372 19.023 6.31078 16.4069 10.7982 16.4069H32.0224V14.5105H16.5885V8.82773L16.5889 8.82803Z" fill="url(#paint0_linear_303_60)"/>
<path d="M47.4509 54.2882C47.4509 58.594 43.621 60.7748 39.7341 61.8624C33.8865 63.5021 29.1933 63.2511 24.3061 61.8624C20.2245 60.7024 16.5894 58.3319 16.5894 54.2882V40.0828C16.5894 35.9945 20.082 32.5036 24.3061 32.5036H39.7341C44.873 32.5036 49.3831 28.1704 49.3831 23.0334V16.4075H55.1679C59.6609 16.4075 61.7762 19.6645 62.8847 23.9816C64.4279 29.9773 64.4966 34.4613 62.8847 39.1352C61.3243 43.6752 59.6551 46.7094 55.1679 46.7094H32.0229V48.6057H47.4509V54.2885V54.2882Z" fill="url(#paint1_linear_303_60)"/>
<path d="M20.4473 7.88546C20.4473 6.31273 21.7391 5.04089 23.34 5.04089C24.9347 5.04089 26.2327 6.31241 26.2327 7.88546C26.2327 9.45313 24.935 10.7243 23.34 10.7243C21.7398 10.7243 20.4473 9.45281 20.4473 7.88546ZM37.8069 55.231C37.8069 53.6634 39.1045 52.3922 40.6996 52.3922C42.2998 52.3922 43.5923 53.6637 43.5923 55.231C43.5923 56.8038 42.3005 58.0756 40.6996 58.0756C39.1049 58.0756 37.8069 56.8041 37.8069 55.231Z" fill="#EEF0F4"/>
<defs>
<linearGradient id="paint0_linear_303_60" x1="47.4507" y1="18.4389" x2="0.0683912" y2="18.0528" gradientUnits="userSpaceOnUse">
<stop offset="0.9999" stop-color="#3A424B"/>
<stop offset="1" stop-color="#3679B0"/>
</linearGradient>
<linearGradient id="paint1_linear_303_60" x1="64.0677" y1="39.7038" x2="-29.7267" y2="39.7038" gradientUnits="userSpaceOnUse">
<stop offset="0.9999"/>
<stop offset="1" stop-color="#FFE873"/>
</linearGradient>
</defs>
</svg>
