<svg width="78" height="78" viewBox="0 0 78 78" fill="none" xmlns="http://www.w3.org/2000/svg">
<path d="M39 0C17.4602 0 0 17.4602 0 39C0 60.5398 17.4602 78 39 78C60.5398 78 78 60.5398 78 39C78 17.4628 60.5398 0.00266121 39 0ZM56.886 56.2473C56.1861 57.3969 54.6878 57.7562 53.5435 57.0563C44.3863 51.4598 32.8579 50.1957 19.2831 53.296C17.9738 53.5967 16.6698 52.7771 16.3718 51.4678C16.071 50.1584 16.888 48.8545 18.2 48.5564C33.0549 45.1634 45.7994 46.6244 56.0796 52.9048C57.224 53.61 57.5885 55.103 56.886 56.2473V56.2473ZM61.6575 45.6317C60.7767 47.0635 58.9032 47.5105 57.4741 46.6323C46.9943 40.1896 31.0111 38.3241 18.6125 42.087C17.0051 42.574 15.3073 41.6665 14.8176 40.0618C14.3333 38.4545 15.2407 36.7593 16.8454 36.2696C31.0084 31.9717 48.6176 34.0528 60.6542 41.451C62.086 42.3318 62.5384 44.2027 61.6575 45.6317ZM62.0673 34.5717C49.4958 27.1071 28.7597 26.4205 16.7576 30.061C14.8309 30.6465 12.7924 29.558 12.2096 27.6313C11.6268 25.7046 12.7126 23.6661 14.642 23.0807C28.419 18.8999 51.3187 19.7062 65.7904 28.2966C67.5228 29.3265 68.0923 31.5646 67.0651 33.2944C66.0405 35.0295 63.7971 35.6016 62.0673 34.5717Z" fill="black"/>
</svg>
