<svg width="136" height="136" viewBox="0 0 136 136" fill="none" xmlns="http://www.w3.org/2000/svg">
<path d="M67.9999 136C105.555 136 136 105.555 136 67.9999C136 30.4446 105.555 0 67.9999 0C30.4446 0 0 30.4446 0 67.9999C0 105.555 30.4446 136 67.9999 136Z" fill="#3A424B"/>
<path d="M71.2931 69.6406C71.2931 54.6275 79.4761 41.5344 91.619 34.5487C87.0974 32.6545 82.1336 31.6045 76.9238 31.6045C55.9173 31.6045 38.8877 48.6329 38.8877 69.6406C38.8877 90.6463 55.9161 107.677 76.9238 107.677C82.1336 107.677 87.0974 106.626 91.619 104.731C79.4763 97.7468 71.2931 84.6515 71.2931 69.6406Z" fill="#EEF0F4"/>
</svg>
