<svg width="83" height="62" viewBox="0 0 83 62" fill="none" xmlns="http://www.w3.org/2000/svg">
<path d="M47.2936 17.0758L44.4532 22.0074L34.7391 5.13711L4.91855 56.9194H25.1091C25.1091 59.643 27.3112 61.851 30.0276 61.851H4.91855C3.1615 61.851 1.53808 60.9106 0.659698 59.3848C-0.218681 57.859 -0.218592 55.9793 0.659934 54.4535L30.4805 2.67128C31.3591 1.14535 32.9829 0.205322 34.7401 0.205322C36.4974 0.205322 38.1212 1.14535 38.9998 2.67128L47.2936 17.0758V17.0758Z" fill="black"/>
<path d="M68.8202 54.4536L50.1339 22.0074L47.2935 17.0758L44.453 22.0074L25.7688 54.4536C24.8903 55.9793 24.8902 57.859 25.7686 59.3848C26.647 60.9106 28.2704 61.851 30.0274 61.851H64.5554C66.3128 61.851 67.937 60.9116 68.8158 59.3857C69.6947 57.8597 69.6948 55.9796 68.8161 54.4536H68.8202ZM30.0274 56.9194L47.2935 26.9391L64.5554 56.9194H30.0274L30.0274 56.9194Z" fill="black"/>
<path d="M82.1801 59.3852C81.3017 60.9107 79.6784 61.851 77.9215 61.851H64.5554C67.2718 61.851 69.4739 59.643 69.4739 56.9193H77.9112L53.9703 15.3435L50.1339 22.0074L47.2935 17.0758L49.7117 12.8777C50.5903 11.3518 52.2141 10.4117 53.9714 10.4117C55.7286 10.4117 57.3524 11.3518 58.231 12.8777L82.1801 54.4535C83.0587 55.9794 83.0587 57.8593 82.1801 59.3852V59.3852Z" fill="black"/>
</svg>
